<svg xmlns="http://www.w3.org/2000/svg" viewBox="0 0 168 210">
<defs><linearGradient id="stone" x2="1" y2="1"><stop stop-color="#d8ba7b"/><stop offset="1" stop-color="#88745b"/></linearGradient></defs>
<ellipse cx="84" cy="204" rx="67" ry="5" fill="#5d6857" opacity=".18"/>
<path d="M44 131 33 195h28l23-50 21 50h30l-12-64" fill="#9b8764" stroke="#6e705a" stroke-width="5" stroke-linejoin="round"/>
<path d="M33 69 12 102 15 144 44 138 60 93m63-24 33 33-3 42-29-6-16-45" fill="url(#stone)" stroke="#6e705a" stroke-width="5"/>
<path d="M44 67h80l12 73-52 21-52-21z" fill="url(#stone)" stroke="#6e705a" stroke-width="5" stroke-linejoin="round"/>
<path d="m57 102 27-18 27 18-27 35z" fill="#eddbac"/><path d="M53 23h62l12 45-43 24-43-24z" fill="#b69c6f" stroke="#6e705a" stroke-width="5"/>
<path d="m48 24 2-18 23 10 13-13 13 13 23-10-3 25" fill="#dfc382" stroke="#6e705a" stroke-width="4"/>
<path d="M60 52h16m16 0h16" stroke="#fff1bd" stroke-width="7" stroke-linecap="round"/>
<path d="M19 125 3 109 4 70l24-12 23 14-4 38z" fill="#b4a47e" stroke="#6e705a" stroke-width="5"/><path d="m24 68 3 39" stroke="#ecd9a4" stroke-width="5"/>
</svg>
